<svg width="18" height="18" viewBox="0 0 18 18" fill="none" xmlns="http://www.w3.org/2000/svg">
<path fill-rule="evenodd" clip-rule="evenodd" d="M16.1482 12.7733C16.096 12.8256 16.0339 12.8672 15.9656 12.8956C15.8972 12.9239 15.824 12.9385 15.75 12.9385C15.676 12.9385 15.6027 12.9239 15.5344 12.8956C15.466 12.8672 15.404 12.8256 15.3517 12.7733L8.99997 6.42038L2.64822 12.7733C2.59592 12.8256 2.53384 12.867 2.4655 12.8953C2.39717 12.9236 2.32393 12.9382 2.24997 12.9382C2.17601 12.9382 2.10277 12.9236 2.03444 12.8953C1.96611 12.867 1.90402 12.8256 1.85172 12.7733C1.79942 12.721 1.75794 12.6589 1.72963 12.5905C1.70133 12.5222 1.68676 12.449 1.68676 12.375C1.68676 12.301 1.70133 12.2278 1.72963 12.1595C1.75794 12.0911 1.79942 12.0291 1.85172 11.9768L8.60172 5.22675C8.65397 5.17437 8.71605 5.13281 8.78438 5.10445C8.85272 5.07609 8.92598 5.0615 8.99997 5.0615C9.07396 5.0615 9.14722 5.07609 9.21556 5.10445C9.2839 5.13281 9.34597 5.17437 9.39822 5.22675L16.1482 11.9768C16.2006 12.029 16.2422 12.0911 16.2705 12.1594C16.2989 12.2278 16.3135 12.301 16.3135 12.375C16.3135 12.449 16.2989 12.5223 16.2705 12.5906C16.2422 12.6589 16.2006 12.721 16.1482 12.7733Z" fill="black"/>
</svg>
