<svg width="24" height="25" viewBox="0 0 24 25" fill="none" xmlns="http://www.w3.org/2000/svg">
<path d="M24 12.5366C24 19.164 18.6274 24.5366 12 24.5366C5.37258 24.5366 0 19.164 0 12.5366C0 5.9092 5.37258 0.536621 12 0.536621C18.6274 0.536621 24 5.9092 24 12.5366Z" fill="#179273"/>
<path fill-rule="evenodd" clip-rule="evenodd" d="M18.2761 8.92715C18.7968 9.44785 18.7968 10.2921 18.2761 10.8128L11.6095 17.4794C11.0888 18.0001 10.2446 18.0001 9.72386 17.4794L5.72386 13.4794C5.20316 12.9587 5.20316 12.1145 5.72386 11.5938C6.24456 11.0731 7.08878 11.0731 7.60948 11.5938L10.6667 14.651L16.3905 8.92715C16.9112 8.40645 17.7554 8.40645 18.2761 8.92715Z" fill="#F3F5F7"/>
</svg>
