<svg width="91" height="16" viewBox="0 0 91 16" fill="none" xmlns="http://www.w3.org/2000/svg">
<path d="M10.6463 5.20597C10.5658 4.90767 10.4474 4.64489 10.2912 4.41761C10.1349 4.18561 9.94318 3.98911 9.71591 3.82812C9.48864 3.66714 9.22822 3.5464 8.93466 3.46591C8.6411 3.38068 8.31913 3.33807 7.96875 3.33807C7.26326 3.33807 6.65246 3.50852 6.13636 3.84943C5.625 4.19034 5.22964 4.6875 4.95028 5.34091C4.67093 5.98958 4.53125 6.77794 4.53125 7.70597C4.53125 8.63873 4.66619 9.43419 4.93608 10.0923C5.20597 10.7505 5.59659 11.2524 6.10795 11.598C6.61932 11.9437 7.23958 12.1165 7.96875 12.1165C8.61269 12.1165 9.1572 12.0123 9.60227 11.804C10.0521 11.5909 10.393 11.2902 10.625 10.902C10.857 10.5137 10.973 10.0568 10.973 9.53125L11.6264 9.60938H8.08949V7.04545H14.3608V8.97017C14.3608 10.2723 14.0838 11.3873 13.5298 12.3153C12.9806 13.2434 12.223 13.956 11.2571 14.4531C10.2959 14.9503 9.19034 15.1989 7.94034 15.1989C6.55303 15.1989 5.33381 14.8982 4.28267 14.2969C3.23153 13.6955 2.41241 12.8385 1.82528 11.7259C1.23816 10.6084 0.944602 9.28267 0.944602 7.74858C0.944602 6.5554 1.12216 5.49716 1.47727 4.57386C1.83239 3.64583 2.32718 2.85985 2.96165 2.21591C3.60085 1.57197 4.33949 1.08428 5.17756 0.75284C6.02036 0.421401 6.92708 0.255681 7.89773 0.255681C8.74053 0.255681 9.52415 0.37642 10.2486 0.617898C10.9777 0.859375 11.6217 1.20028 12.1804 1.64062C12.7438 2.08097 13.2008 2.60417 13.5511 3.21023C13.9015 3.81629 14.1193 4.48153 14.2045 5.20597H10.6463ZM16.4329 15V0.454545H22.4414C23.5304 0.454545 24.4703 0.651041 25.261 1.04403C26.0565 1.43229 26.6696 1.991 27.1005 2.72017C27.5314 3.4446 27.7468 4.30398 27.7468 5.2983C27.7468 6.30682 27.5266 7.16383 27.0863 7.86932C26.646 8.57008 26.021 9.10511 25.2113 9.47443C24.4016 9.83902 23.4428 10.0213 22.3349 10.0213H18.5352V7.25142H21.6815C22.2118 7.25142 22.6545 7.18276 23.0096 7.04545C23.3694 6.90341 23.6417 6.69034 23.8263 6.40625C24.011 6.11742 24.1033 5.74811 24.1033 5.2983C24.1033 4.84848 24.011 4.4768 23.8263 4.18324C23.6417 3.88494 23.3694 3.66241 23.0096 3.51562C22.6497 3.36411 22.207 3.28835 21.6815 3.28835H19.9485V15H16.4329ZM24.6218 8.35227L28.244 15H24.4087L20.8576 8.35227H24.6218ZM32.8214 15H29.043L33.9506 0.454545H38.631L43.5387 15H39.7603L36.3441 4.11932H36.2305L32.8214 15ZM32.3171 9.27557H40.2148V11.946H32.3171V9.27557ZM50.4812 15H45.1048V0.454545H50.4741C51.9561 0.454545 53.2321 0.745738 54.3022 1.32812C55.377 1.90578 56.2056 2.73911 56.788 3.82812C57.3704 4.91241 57.6616 6.20975 57.6616 7.72017C57.6616 9.23532 57.3704 10.5374 56.788 11.6264C56.2103 12.7154 55.3841 13.5511 54.3093 14.1335C53.2345 14.7112 51.9585 15 50.4812 15ZM48.6204 12.0028H50.3462C51.1606 12.0028 51.8496 11.8655 52.413 11.5909C52.9812 11.3116 53.4097 10.8594 53.6985 10.2344C53.9921 9.60464 54.1388 8.76657 54.1388 7.72017C54.1388 6.67377 53.9921 5.84044 53.6985 5.22017C53.4049 4.59517 52.9717 4.14536 52.3988 3.87074C51.8306 3.59138 51.1299 3.4517 50.2965 3.4517H48.6204V12.0028ZM59.7141 15V0.454545H69.8562V3.30966H63.2298V6.29261H69.3377V9.15483H63.2298V12.1449H69.8562V15H59.7141Z" fill="#179273"/>
<path d="M75.2042 15H71.4258L76.3335 0.454545H81.0138L85.9215 15H82.1431L78.7269 4.11932H78.6133L75.2042 15ZM74.6999 9.27557H82.5977V11.946H74.6999V9.27557ZM91.0032 0.454545V15H87.4876V0.454545H91.0032Z" fill="#CBCDCF"/>
</svg>
