<svg width="24" height="25" viewBox="0 0 24 25" fill="none" xmlns="http://www.w3.org/2000/svg">
<path d="M24 12.1465C24 18.7739 18.6274 24.1465 12 24.1465C5.37258 24.1465 0 18.7739 0 12.1465C0 5.51907 5.37258 0.146484 12 0.146484C18.6274 0.146484 24 5.51907 24 12.1465Z" fill="#FFB545"/>
<path d="M8.12904 18.3288C7.79452 18.5004 7.41493 18.1996 7.48253 17.8157L8.20184 13.7165L5.14867 10.8081C4.86355 10.536 5.01174 10.0385 5.39393 9.98477L9.63872 9.38159L11.5315 5.63165C11.7022 5.29366 12.1641 5.29366 12.3348 5.63165L14.2276 9.38159L18.4724 9.98477C18.8546 10.0385 19.0027 10.536 18.7176 10.8081L15.6645 13.7165L16.3838 17.8157C16.4514 18.1996 16.0718 18.5004 15.7373 18.3288L11.9318 16.3736L8.12817 18.3288H8.12904Z" fill="white"/>
</svg>
